<svg width="2816" height="1536" viewBox="913 398 935 826" fill="none" xmlns="http://www.w3.org/2000/svg">
<path d="M933 418.482C1003.52 418.321 1003.52 418.321 1033.15 418.287C1039.93 418.279 1046.71 418.271 1053.49 418.262C1054.34 418.261 1055.19 418.26 1056.06 418.259C1069.71 418.242 1083.36 418.21 1097 418.173C1111.05 418.136 1125.09 418.114 1139.14 418.106C1147.78 418.1 1156.42 418.083 1165.06 418.05C1171.02 418.029 1176.97 418.023 1182.93 418.028C1186.34 418.031 1189.76 418.025 1193.18 418.005C1238.11 417.76 1282.86 426.147 1324 444.482C1321.29 447.285 1318.76 449.876 1315.4 451.877C1314.75 452.271 1314.1 452.665 1313.43 453.07C1312.41 453.676 1312.41 453.676 1311.38 454.295C1304.67 458.388 1298.3 462.772 1292 467.482C1290.17 468.796 1288.33 470.108 1286.5 471.42C1278.24 477.438 1270.47 484.049 1262.69 490.67C1262.11 491.156 1261.54 491.643 1260.95 492.145C1258.09 494.595 1255.43 497.078 1252.88 499.845C1250 502.482 1250 502.482 1247.68 502.92C1246.9 502.775 1246.12 502.631 1245.31 502.482C1229.81 499.895 1214.44 499.18 1198.75 499.163C1196.7 499.154 1194.65 499.144 1192.59 499.133C1187.09 499.106 1181.58 499.09 1176.07 499.077C1170.29 499.062 1164.51 499.035 1158.74 499.009C1147.82 498.963 1136.91 498.926 1125.99 498.893C1113.55 498.854 1101.12 498.805 1088.68 498.755C1063.12 498.652 1037.56 498.564 1012 498.482C1012 525.542 1012 552.602 1012 580.482C1069.09 580.482 1126.18 580.482 1185 580.482C1178.42 592.552 1178.42 592.552 1175.38 597.295C1167.55 609.903 1160.51 623.027 1154.12 636.42C1153.79 637.115 1153.46 637.809 1153.12 638.526C1149.75 645.736 1146.97 653.061 1144 660.482C1074.37 660.482 1004.74 660.482 933 660.482C933 580.622 933 500.762 933 418.482Z" fill="#031121"/>
<path d="M1551.4 418.007C1555.12 418.016 1558.84 418.013 1562.57 418.011C1568.98 418.01 1575.39 418.016 1581.81 418.028C1591.08 418.044 1600.35 418.049 1609.63 418.052C1624.68 418.056 1639.73 418.069 1654.79 418.088C1669.39 418.107 1683.99 418.121 1698.59 418.129C1699.96 418.13 1699.96 418.13 1701.36 418.131C1708.5 418.135 1715.64 418.139 1722.78 418.143C1757.64 418.162 1792.5 418.202 1827.36 418.239C1827.36 498.429 1827.36 578.619 1827.36 661.239C1764 661.239 1700.64 661.239 1635.36 661.239C1635.36 840.099 1635.36 1018.96 1635.36 1203.24C1604.26 1203.24 1604.26 1203.24 1591.93 1202.49C1591.2 1202.45 1590.47 1202.4 1589.71 1202.36C1547.76 1199.81 1507.43 1189.03 1469.36 1171.24C1468.63 1170.9 1467.89 1170.55 1467.13 1170.2C1448.13 1161.24 1429.71 1150.45 1413.36 1137.24C1417.86 1131.83 1422.65 1126.9 1427.68 1121.99C1434.04 1115.68 1439.87 1109.33 1445.36 1102.24C1446.33 1101.03 1447.31 1099.83 1448.28 1098.62C1454.2 1091.31 1459.93 1083.92 1465.36 1076.24C1468.84 1077.52 1471.69 1079.02 1474.74 1081.11C1499.75 1097.29 1526.49 1107.57 1555.36 1114.24C1555.36 964.749 1555.36 815.259 1555.36 661.239C1519.43 661.406 1519.43 661.406 1484.74 668.052C1483.86 668.312 1482.98 668.573 1482.07 668.842C1479.5 669.62 1476.93 670.422 1474.36 671.239C1473.65 671.464 1472.95 671.69 1472.22 671.922C1448.11 679.792 1426.42 693.577 1408.36 711.239C1407.36 712.183 1406.35 713.126 1405.35 714.067C1369.55 748.073 1353.9 799.228 1352.11 847.391C1351.43 874.809 1354.34 905.363 1363.08 931.43C1365.49 939.329 1363.29 945.352 1359.93 952.614C1359.39 953.776 1359.39 953.776 1358.85 954.961C1347.95 978.382 1333.09 999.367 1314.36 1017.24C1311.36 1016.24 1311.36 1016.24 1309.57 1013.17C1308.9 1011.82 1308.25 1010.47 1307.61 1009.11C1307.26 1008.39 1306.91 1007.66 1306.55 1006.91C1305.83 1005.41 1305.11 1003.9 1304.39 1002.39C1303.48 1000.49 1302.54 998.604 1301.6 996.72C1266.03 924.164 1262.4 830.473 1288.01 754.398C1298.53 724.38 1314.59 696.329 1335.36 672.239C1335.99 671.506 1336.61 670.772 1337.25 670.016C1349.32 656.187 1362.4 642.925 1377.36 632.239C1377.98 631.792 1378.6 631.344 1379.24 630.883C1416.99 603.738 1459.35 588.281 1505.36 582.239C1505.99 582.156 1506.62 582.073 1507.27 581.987C1512.98 581.287 1518.58 581.1 1524.33 581.119C1525.77 581.118 1525.77 581.118 1527.25 581.116C1530.45 581.115 1533.66 581.12 1536.86 581.126C1539.17 581.126 1541.48 581.126 1543.79 581.125C1550.03 581.125 1556.28 581.131 1562.53 581.138C1569.06 581.144 1575.6 581.145 1582.13 581.146C1593.09 581.148 1604.05 581.155 1615.02 581.164C1626.31 581.173 1637.59 581.18 1648.88 581.184C1649.58 581.184 1650.27 581.185 1650.99 581.185C1654.49 581.186 1657.98 581.188 1661.48 581.189C1690.44 581.199 1719.4 581.218 1748.36 581.239C1748.36 554.179 1748.36 527.119 1748.36 499.239C1718.34 499.301 1688.32 499.373 1658.3 499.468C1654.74 499.479 1651.18 499.49 1647.62 499.502C1646.92 499.504 1646.21 499.506 1645.48 499.508C1634.07 499.543 1622.65 499.568 1611.24 499.589C1599.5 499.611 1587.76 499.644 1576.01 499.688C1569.43 499.712 1562.85 499.73 1556.27 499.737C1550.05 499.743 1543.84 499.763 1537.62 499.793C1535.36 499.802 1533.1 499.806 1530.84 499.804C1510.82 499.793 1491.01 501.563 1471.36 505.489C1470.3 505.698 1469.24 505.907 1468.15 506.123C1421.89 515.58 1377.39 535.749 1340.15 564.85C1338.43 566.185 1336.69 567.492 1334.94 568.79C1315.97 582.939 1297.63 600.366 1283.36 619.239C1282.62 620.166 1281.88 621.093 1281.11 622.048C1235.65 679.333 1210.27 752.149 1210.2 825.267C1210.2 826.512 1210.19 827.756 1210.19 829.038C1210.18 832.452 1210.17 835.866 1210.16 839.28C1210.15 842.976 1210.14 846.673 1210.13 850.369C1210.11 856.76 1210.09 863.152 1210.07 869.543C1210.05 878.783 1210.02 888.023 1209.99 897.264C1209.94 912.259 1209.9 927.253 1209.86 942.248C1209.82 956.807 1209.78 971.366 1209.74 985.925C1209.73 986.824 1209.73 987.722 1209.73 988.648C1209.71 993.157 1209.7 997.665 1209.69 1002.17C1209.57 1039.53 1209.47 1076.88 1209.36 1114.24C1212.21 1113.62 1215.06 1112.99 1217.9 1112.37C1219.1 1112.11 1219.1 1112.11 1220.32 1111.84C1259.5 1103.21 1295.26 1083.56 1325.36 1057.24C1325.9 1056.77 1326.43 1056.3 1326.98 1055.82C1330.52 1052.71 1333.96 1049.5 1337.36 1046.24C1338.17 1045.47 1338.17 1045.47 1338.99 1044.68C1346.33 1037.59 1353.1 1030.31 1359.36 1022.24C1360.39 1020.95 1361.42 1019.66 1362.45 1018.37C1369.55 1009.4 1375.74 1000.22 1381.26 990.208C1382.26 988.429 1383.29 986.676 1384.34 984.927C1397.81 961.466 1406.88 933.175 1411.68 906.677C1411.82 905.864 1411.97 905.052 1412.12 904.216C1415.12 885.897 1415.69 867.385 1415.62 848.861C1415.61 845.439 1415.62 842.018 1415.64 838.596C1415.65 817.393 1414.28 796.451 1410.95 775.505C1410.75 774.083 1410.56 772.661 1410.36 771.239C1410.21 770.244 1410.05 769.249 1409.89 768.223C1410.66 763.373 1413.55 760.076 1416.49 756.239C1417.12 755.403 1417.75 754.566 1418.4 753.704C1433.1 734.605 1452.23 719.026 1474.36 709.239C1475.35 709.239 1476.34 709.239 1477.36 709.239C1484.79 730.361 1489.09 752.484 1492.18 774.614C1492.27 775.315 1492.37 776.016 1492.48 776.738C1495.45 798.046 1496.69 819.328 1496.57 840.835C1496.55 844.266 1496.55 847.695 1496.55 851.126C1496.52 870.195 1495.45 888.57 1492.61 907.427C1492.48 908.33 1492.34 909.233 1492.2 910.163C1487.35 942.492 1478.68 973.329 1465.36 1003.24C1464.98 1004.11 1464.59 1004.98 1464.19 1005.88C1458.21 1019.27 1451.2 1031.85 1443.36 1044.24C1442.98 1044.84 1442.6 1045.44 1442.21 1046.06C1437.46 1053.55 1432.16 1060.59 1426.68 1067.55C1425.34 1069.26 1424.02 1070.99 1422.7 1072.72C1409.17 1090.35 1393.44 1107.57 1375.91 1121.25C1373.11 1123.44 1370.43 1125.74 1367.74 1128.05C1353.93 1139.53 1338.75 1149.03 1323.36 1158.24C1322.66 1158.66 1321.95 1159.09 1321.23 1159.52C1267.82 1191.43 1205.51 1203.6 1143.93 1203.29C1142.51 1203.29 1141.08 1203.28 1139.66 1203.28C1136.22 1203.27 1132.79 1203.26 1129.36 1203.24C1129.29 1153.72 1129.24 1104.2 1129.21 1054.68C1129.21 1048.81 1129.2 1042.95 1129.2 1037.09C1129.2 1035.92 1129.2 1034.76 1129.2 1033.55C1129.18 1014.72 1129.16 995.89 1129.13 977.058C1129.1 957.699 1129.09 938.339 1129.08 918.98C1129.08 907.059 1129.06 895.137 1129.04 883.216C1129.02 875.013 1129.02 866.81 1129.02 858.606C1129.02 853.892 1129.02 849.177 1129.01 844.462C1128.91 816.831 1129.99 789.535 1134.74 762.239C1134.95 760.97 1135.17 759.7 1135.39 758.392C1136.03 754.671 1136.69 750.954 1137.36 747.239C1137.56 746.167 1137.75 745.095 1137.95 743.991C1151 673.063 1185.67 606.973 1233.36 553.239C1234.22 552.27 1235.08 551.3 1235.96 550.302C1241.48 544.169 1247.23 538.275 1253.05 532.427C1253.75 531.721 1254.45 531.016 1255.17 530.289C1259.74 525.736 1264.46 521.43 1269.36 517.239C1269.91 516.767 1270.45 516.294 1271.02 515.807C1278.56 509.279 1286.29 503.107 1294.36 497.239C1294.91 496.838 1295.46 496.438 1296.02 496.025C1310.33 485.57 1325.2 476.352 1340.68 467.736C1342.4 466.777 1344.11 465.813 1345.83 464.84C1386.18 441.992 1432.8 429.156 1478.36 422.239C1479.05 422.133 1479.73 422.026 1480.44 421.916C1503.9 418.351 1527.72 417.936 1551.4 418.007Z" fill="#39359E"/>
<path d="M1477 709C1484.43 730.122 1488.73 752.244 1491.81 774.375C1491.91 775.076 1492.01 775.777 1492.11 776.499C1495.08 797.807 1496.33 819.089 1496.21 840.596C1496.19 844.026 1496.19 847.456 1496.19 850.887C1496.16 869.956 1495.09 888.331 1492.25 907.188C1492.12 908.091 1491.98 908.994 1491.84 909.924C1486.99 942.253 1478.32 973.09 1465 1003C1464.61 1003.87 1464.23 1004.75 1463.83 1005.64C1457.84 1019.03 1450.84 1031.61 1443 1044C1442.62 1044.6 1442.24 1045.2 1441.85 1045.82C1437.1 1053.31 1431.8 1060.35 1426.32 1067.31C1424.98 1069.02 1423.66 1070.75 1422.34 1072.48C1408.81 1090.11 1393.08 1107.33 1375.55 1121.01C1372.75 1123.2 1370.07 1125.5 1367.38 1127.81C1353.57 1139.3 1338.38 1148.8 1323 1158C1322.3 1158.42 1321.59 1158.85 1320.86 1159.29C1261.99 1194.45 1196.42 1203 1129 1203C1129 1084.2 1129 965.4 1129 843C1155.07 843 1181.14 843 1208 843C1208 932.76 1208 1022.52 1208 1115C1252 1103 1290.34 1087.3 1325 1057C1325.53 1056.53 1326.07 1056.07 1326.62 1055.58C1330.16 1052.47 1333.6 1049.26 1337 1046C1337.81 1045.23 1337.81 1045.23 1338.63 1044.44C1345.97 1037.35 1352.74 1030.07 1359 1022C1360.03 1020.71 1361.06 1019.42 1362.09 1018.13C1369.19 1009.16 1375.37 999.982 1380.9 989.969C1381.89 988.19 1382.93 986.437 1383.97 984.688C1397.45 961.227 1406.52 932.936 1411.31 906.438C1411.53 905.219 1411.53 905.219 1411.76 903.977C1414.76 885.658 1415.33 867.146 1415.26 848.622C1415.25 845.2 1415.26 841.779 1415.27 838.357C1415.29 817.154 1413.91 796.212 1410.59 775.266C1410.39 773.844 1410.19 772.422 1410 771C1409.85 770.005 1409.69 769.01 1409.53 767.984C1410.29 763.134 1413.19 759.837 1416.12 756C1416.76 755.163 1417.39 754.327 1418.04 753.465C1429.61 738.433 1456.21 709 1477 709Z" fill="#031121"/>
<path d="M1554.9 582.391C1554.89 583.141 1554.88 583.891 1554.87 584.664C1554.8 590.726 1554.95 596.738 1555.26 602.791C1556.25 622.347 1555.99 641.926 1555.9 661.502C1554.13 661.524 1554.13 661.524 1552.32 661.546C1547.84 661.605 1543.37 661.682 1538.89 661.764C1536.97 661.797 1535.05 661.826 1533.13 661.849C1516.64 662.052 1500.91 663.543 1485.04 668.324C1484.16 668.585 1483.28 668.846 1482.37 669.115C1479.78 669.894 1477.21 670.697 1474.63 671.516C1473.92 671.741 1473.21 671.967 1472.48 672.199C1448.29 680.08 1426.54 693.885 1408.41 711.572C1407.41 712.517 1406.4 713.461 1405.39 714.404C1369.47 748.457 1353.77 799.684 1351.97 847.915C1351.3 875.37 1354.21 905.967 1362.98 932.071C1365.4 939.981 1363.2 946.012 1359.82 953.285C1359.46 954.06 1359.1 954.836 1358.74 955.635C1347.8 979.089 1332.89 1000.1 1314.1 1018C1311.09 1017 1311.09 1017 1309.29 1013.92C1308.62 1012.58 1307.97 1011.22 1307.33 1009.86C1306.98 1009.14 1306.62 1008.41 1306.26 1007.66C1305.54 1006.15 1304.81 1004.64 1304.1 1003.13C1303.19 1001.23 1302.24 999.339 1301.3 997.452C1265.61 924.795 1261.96 830.973 1287.66 754.791C1298.22 724.731 1314.33 696.641 1335.17 672.517C1335.8 671.783 1336.42 671.048 1337.06 670.291C1349.18 656.443 1362.3 643.162 1377.31 632.461C1377.93 632.013 1378.55 631.565 1379.19 631.103C1431.65 593.461 1491.08 579.391 1554.9 582.391Z" fill="#6F32C8"/>
</svg>
