<svg width="648" height="282" viewBox="0 0 648 282" fill="none" xmlns="http://www.w3.org/2000/svg">
<path d="M395.322 109.78C395.652 116.05 395.982 122.32 396.322 128.78C399.013 128.749 399.013 128.749 401.759 128.717C403.614 128.696 405.469 128.708 407.322 128.78C408.878 130.336 408.452 131.839 408.455 133.999C408.456 134.848 408.457 135.698 408.459 136.573C408.455 137.466 408.451 138.359 408.447 139.28C408.451 140.173 408.455 141.066 408.459 141.987C408.457 143.261 408.457 143.261 408.455 144.561C408.454 145.345 408.452 146.13 408.451 146.938C408.322 148.78 408.322 148.78 407.322 149.78C405.469 149.852 403.614 149.864 401.759 149.842C400.748 149.833 399.736 149.824 398.693 149.815C397.911 149.803 397.128 149.792 396.322 149.78C396.293 153.759 396.275 157.738 396.259 161.717C396.251 162.854 396.243 163.99 396.234 165.161C396.231 166.24 396.228 167.32 396.224 168.432C396.219 169.432 396.214 170.433 396.208 171.463C396.06 173.742 396.06 173.742 397.322 174.78C398.988 174.826 400.656 174.818 402.322 174.78C403.988 174.742 405.656 174.734 407.322 174.78C408.322 175.78 408.322 175.78 408.435 177.637C408.43 178.428 408.425 179.219 408.42 180.034C408.416 180.888 408.413 181.742 408.41 182.622C408.401 183.519 408.393 184.417 408.384 185.342C408.38 186.244 408.375 187.146 408.371 188.075C408.359 190.31 408.342 192.545 408.322 194.78C400.596 198.378 389.548 198.973 381.314 196.627C374.949 193.919 370.874 190.079 368.013 183.807C366.501 179.373 366.16 175.047 366.006 170.385C365.943 168.582 365.943 168.582 365.879 166.743C365.839 165.497 365.8 164.251 365.759 162.967C365.716 161.702 365.673 160.437 365.629 159.133C365.523 156.016 365.421 152.898 365.322 149.78C363.012 149.78 360.702 149.78 358.322 149.78C358.322 164.63 358.322 179.48 358.322 194.78C354.527 195.539 351.623 195.908 347.838 195.913C346.82 195.914 345.803 195.915 344.756 195.917C343.705 195.913 342.654 195.909 341.572 195.905C340.506 195.909 339.44 195.913 338.341 195.917C337.33 195.915 336.318 195.914 335.275 195.913C334.349 195.912 333.422 195.91 332.467 195.909C330.322 195.78 330.322 195.78 329.322 194.78C329.186 191.714 329.111 188.668 329.076 185.6C329.043 183.703 329.01 181.806 328.976 179.909C328.929 176.904 328.884 173.9 328.845 170.896C328.805 168.005 328.754 165.115 328.701 162.225C328.692 161.325 328.684 160.425 328.675 159.498C328.659 158.66 328.642 157.823 328.625 156.96C328.609 155.855 328.609 155.855 328.594 154.728C328.421 152.457 328.421 152.457 326.322 149.78C322.822 149.28 322.822 149.28 319.322 149.78C317.282 152.839 317.067 153.506 317.019 156.96C317.002 157.797 316.986 158.635 316.969 159.498C316.96 160.398 316.952 161.298 316.943 162.225C316.918 163.614 316.918 163.614 316.892 165.03C316.838 167.988 316.798 170.946 316.759 173.905C316.716 176.87 316.669 179.836 316.617 182.801C316.585 184.647 316.558 186.494 316.536 188.34C316.434 194.668 316.434 194.668 315.322 195.78C313.334 195.88 311.343 195.911 309.353 195.913C308.143 195.914 306.932 195.915 305.685 195.917C304.41 195.913 303.135 195.909 301.822 195.905C300.547 195.909 299.272 195.913 297.959 195.917C296.748 195.915 295.538 195.914 294.291 195.913C293.171 195.912 292.052 195.91 290.898 195.909C288.322 195.78 288.322 195.78 287.322 194.78C287.164 193.001 287.071 191.217 287.006 189.432C286.967 188.46 286.929 187.488 286.89 186.487C286.825 184.621 286.825 184.621 286.759 182.717C286.543 176.808 286.543 176.808 286.322 170.78C273.782 171.11 261.242 171.44 248.322 171.78C251.639 176.854 251.639 176.854 255.322 177.78C263.913 178.228 271.948 177.841 280.322 175.78C280.322 181.72 280.322 187.66 280.322 193.78C266.379 198.952 249.781 199.811 236.072 193.592C227.951 189.171 223.261 183.531 220.322 174.78C217.764 164.759 218.95 153.453 223.611 144.229C228.962 135.716 235.584 130.465 245.322 127.78C256.43 125.745 266.527 126.783 276.091 133.002C281.147 137.031 284.077 141.784 286.322 147.78C286.383 146.492 286.443 145.204 286.506 143.877C286.59 142.199 286.675 140.521 286.759 138.842C286.799 137.992 286.838 137.142 286.879 136.266C286.92 135.457 286.962 134.648 287.006 133.815C287.042 133.066 287.079 132.317 287.117 131.546C287.322 129.78 287.322 129.78 288.322 128.78C290.225 128.68 292.131 128.649 294.037 128.647C295.198 128.646 296.358 128.644 297.554 128.643C298.777 128.647 300 128.651 301.259 128.655C302.478 128.651 303.697 128.647 304.953 128.643C306.696 128.645 306.696 128.645 308.474 128.647C309.547 128.648 310.619 128.649 311.724 128.65C314.322 128.78 314.322 128.78 316.322 129.78C316.947 132.342 316.947 132.342 317.322 134.78C317.89 134.37 318.459 133.96 319.045 133.538C326.54 128.307 332.395 126.098 341.599 127.174C347.143 128.407 351.048 130.988 354.322 135.592C354.652 136.314 354.982 137.036 355.322 137.78C355.466 136.48 355.611 135.181 355.759 133.842C356.197 129.905 356.197 129.905 357.322 128.78C359.993 128.639 362.646 128.737 365.322 128.78C365.652 124.82 365.982 120.86 366.322 116.78C372.405 114.639 378.559 112.796 384.759 111.03C385.565 110.795 386.37 110.56 387.2 110.318C393.089 108.663 393.089 108.663 395.322 109.78ZM249.447 146.405C247.96 149.264 247.96 149.264 247.322 154.78C252.272 154.78 257.222 154.78 262.322 154.78C262.033 153.501 261.744 152.222 261.447 150.905C261.203 149.826 261.203 149.826 260.955 148.725C260.417 146.573 260.417 146.573 258.322 144.78C253.492 144.149 253.492 144.149 249.447 146.405Z" fill="#0B1220"/>
<path d="M588.804 138.205C594.579 142.609 597.563 149.493 598.835 156.51C600.344 170.305 598.997 183.915 590.116 195.08C582.916 201.767 575.985 204.407 566.116 204.08C561.292 202.814 557.253 200.838 553.116 198.08C553.116 208.97 553.116 219.86 553.116 231.08C549.958 232.133 547.704 232.209 544.389 232.213C543.276 232.214 542.162 232.216 541.014 232.217C539.852 232.213 538.689 232.209 537.491 232.205C536.321 232.209 535.15 232.213 533.944 232.217C532.833 232.216 531.722 232.214 530.577 232.213C529.554 232.212 528.531 232.211 527.477 232.21C525.116 232.08 525.116 232.08 524.116 231.08C524.021 228.128 523.99 225.199 524.002 222.246C524.002 221.319 524.002 220.393 524.002 219.438C524.003 216.359 524.011 213.28 524.018 210.201C524.02 208.073 524.022 205.944 524.023 203.816C524.026 198.202 524.036 192.587 524.047 186.973C524.058 181.249 524.062 175.525 524.067 169.801C524.078 158.561 524.095 147.32 524.116 136.08C527.428 135.19 530.317 134.964 533.757 134.983C535.362 134.987 535.362 134.987 536.999 134.992C538.11 135.001 539.221 135.009 540.366 135.018C542.056 135.025 542.056 135.025 543.78 135.031C546.559 135.043 549.337 135.06 552.116 135.08C552.776 137.06 553.436 139.04 554.116 141.08C554.92 140.317 555.725 139.554 556.554 138.768C566.4 130.612 578.461 131.735 588.804 138.205ZM556.804 155.58C552.47 159.611 552.018 163.373 551.804 169.08C551.909 174.456 553.263 178.228 557.116 182.08C560.489 182.664 560.489 182.664 564.116 182.08C567.591 179.36 569.342 177.384 570.116 173.08C570.663 166.803 570.589 161.458 567.116 156.08C562.882 153.923 561.161 153.607 556.804 155.58Z" fill="#7C52E8"/>
<path d="M52.0091 78.0958C52.9443 78.0984 53.8794 78.101 54.8429 78.1037C56.3138 78.1003 56.3138 78.1003 57.8143 78.0969C61.072 78.0912 64.3296 78.095 67.5872 78.0993C69.8423 78.0985 72.0973 78.0972 74.3524 78.0956C79.086 78.0937 83.8195 78.0965 88.553 78.1025C94.6298 78.1098 100.706 78.1056 106.783 78.0979C111.442 78.0932 116.102 78.0947 120.761 78.098C123.002 78.0989 125.243 78.0978 127.484 78.0948C130.613 78.0916 133.743 78.0965 136.872 78.1037C137.805 78.1011 138.738 78.0985 139.698 78.0958C146.116 78.1232 146.116 78.1232 149 79.5556C149 88.4643 149 97.373 149 106.552C138.968 111.534 126.559 107.016 115.353 106.552C115.353 136.247 115.353 165.943 115.353 196.539C110.442 197.514 106.684 197.989 101.785 197.995C100.469 197.997 99.1527 197.998 97.7966 198C96.4371 197.995 95.0775 197.99 93.6767 197.985C92.2971 197.99 90.9175 197.995 89.4961 198C88.1866 197.998 86.8771 197.997 85.5279 197.995C84.3288 197.994 83.1298 197.992 81.8945 197.991C79.118 197.824 79.118 197.824 77.8238 196.539C77.7019 193.778 77.6719 191.014 77.6769 188.25C77.6767 187.385 77.6765 186.52 77.6764 185.628C77.6773 182.755 77.6873 179.883 77.6975 177.01C77.6999 175.023 77.7017 173.036 77.703 171.049C77.708 165.81 77.7207 160.571 77.735 155.332C77.7482 149.99 77.7541 144.647 77.7607 139.305C77.7745 128.816 77.7966 118.326 77.8238 107.837C76.8506 107.844 75.8773 107.851 74.8745 107.858C70.4924 107.884 66.1104 107.901 61.7283 107.918C59.43 107.934 59.43 107.934 57.0852 107.95C55.6297 107.954 54.1742 107.958 52.6746 107.963C50.6517 107.973 50.6517 107.973 48.5878 107.983C45.471 107.837 45.471 107.837 44.1769 106.552C44.0488 104.56 44.0077 102.562 44.0051 100.566C44.0034 99.3579 44.0017 98.1499 44 96.9052C44.005 95.6342 44.01 94.3632 44.0152 93.0536C44.0102 91.7826 44.0052 90.5116 44 89.2021C44.0017 87.994 44.0033 86.786 44.0051 85.5413C44.0065 84.4253 44.008 83.3092 44.0095 82.1593C44.3436 76.9637 47.5191 78.115 52.0091 78.0958Z" fill="#0B1220"/>
<path d="M391.114 78.0968C392.535 78.1007 392.535 78.1007 393.985 78.1047C395.476 78.1013 395.476 78.1013 396.996 78.0979C400.297 78.0922 403.597 78.096 406.898 78.1003C409.181 78.0994 411.465 78.0982 413.748 78.0966C418.541 78.0947 423.333 78.0975 428.125 78.1034C434.282 78.1108 440.438 78.1066 446.595 78.0989C451.312 78.0942 456.029 78.0957 460.747 78.099C463.017 78.0999 465.288 78.0988 467.559 78.0958C470.727 78.0926 473.895 78.0975 477.063 78.1047C478.011 78.1021 478.958 78.0995 479.935 78.0968C486.411 78.1242 486.411 78.1242 487.869 79.5566C487.983 81.5642 488.01 83.5768 487.997 85.5874C487.991 87.4082 487.991 87.4082 487.984 89.2657C487.968 91.1809 487.968 91.1809 487.951 93.1348C487.945 94.4166 487.939 95.6984 487.933 97.019C487.918 100.197 487.896 103.375 487.869 106.552C483.866 107.863 481.164 107.986 476.976 107.964C475.631 107.959 474.286 107.955 472.899 107.951C471.497 107.94 470.094 107.929 468.649 107.918C466.522 107.91 466.522 107.91 464.352 107.901C460.85 107.886 457.347 107.864 453.845 107.838C453.848 108.946 453.851 110.055 453.854 111.197C453.88 121.62 453.9 132.043 453.913 142.467C453.92 147.826 453.929 153.185 453.944 158.545C453.958 163.712 453.966 168.88 453.969 174.048C453.972 176.024 453.976 178 453.983 179.976C453.993 182.734 453.994 185.492 453.994 188.25C453.996 189.823 453.999 191.396 454.002 193.017C453.845 196.539 453.845 196.539 452.536 197.824C449.935 197.953 447.33 197.992 444.726 197.995C442.349 197.997 442.349 197.997 439.925 198C438.257 197.995 436.589 197.99 434.87 197.985C433.202 197.99 431.533 197.995 429.814 198C428.23 197.998 426.646 197.997 425.014 197.995C423.549 197.994 422.084 197.992 420.575 197.991C417.203 197.824 417.203 197.824 415.895 196.539C415.771 193.739 415.741 190.935 415.746 188.132C415.746 187.254 415.746 186.377 415.746 185.472C415.746 182.558 415.757 179.643 415.767 176.729C415.769 174.713 415.771 172.697 415.773 170.682C415.778 165.366 415.79 160.051 415.805 154.736C415.818 149.316 415.824 143.897 415.831 138.477C415.845 127.835 415.867 117.194 415.895 106.552C414.478 106.621 414.478 106.621 413.032 106.691C408.78 106.893 404.526 107.084 400.273 107.276C398.042 107.384 398.042 107.384 395.767 107.494C394.354 107.556 392.941 107.618 391.486 107.682C389.522 107.773 389.522 107.773 387.519 107.866C384.488 107.838 384.488 107.838 383.179 106.552C383.049 104.56 383.008 102.563 383.005 100.567C383.003 99.3587 383.002 98.1507 383 96.906C383.005 95.635 383.01 94.364 383.015 93.0545C383.01 91.7835 383.005 90.5125 383 89.203C383.002 87.9949 383.003 86.7869 383.005 85.5423C383.007 84.4262 383.008 83.3101 383.01 82.1602C383.348 76.9596 386.57 78.116 391.114 78.0968Z" fill="#7C52E8"/>
<path d="M172.286 133.225C178.688 138.302 181.05 144.315 182.286 152.225C182.717 158.741 182.635 165.273 182.567 171.799C182.536 174.877 182.526 177.955 182.52 181.034C182.511 182.986 182.501 184.938 182.489 186.889C182.485 187.812 182.481 188.735 182.476 189.686C182.403 196.108 182.403 196.108 181.286 197.225C179.505 197.313 177.721 197.332 175.938 197.323C174.859 197.32 173.779 197.316 172.667 197.313C171.53 197.305 170.394 197.296 169.223 197.288C168.083 197.283 166.943 197.279 165.768 197.274C162.941 197.262 160.113 197.246 157.286 197.225C156.626 194.915 155.966 192.605 155.286 190.225C154.801 190.707 154.317 191.19 153.817 191.686C148.354 196.834 144.335 199.178 136.805 199.249C129.738 198.842 124.997 197.009 119.973 191.85C115.795 185.35 115.321 178.544 116.68 171.05C118.451 165.165 122.122 161.421 127.286 158.225C136.202 154.352 145.705 153.232 155.286 152.225C152.284 148.988 152.284 148.988 148.223 147.35C141.691 147.143 135.332 148.148 129.348 150.85C126.286 152.225 126.286 152.225 122.286 152.225C122.286 146.285 122.286 140.345 122.286 134.225C136.208 128.259 158.763 124.319 172.286 133.225ZM143.286 169.225C140.99 171.984 140.99 171.984 141.536 174.788C142.124 177.375 142.124 177.375 144.286 179.225C148.079 179.647 150.389 179.792 153.661 177.725C155.946 174.21 156.008 171.391 156.286 167.225C151.603 166.933 147.734 167.84 143.286 169.225Z" fill="#0B1220"/>
<path d="M488.025 128.031C497.278 127.757 505.497 129.257 512.833 135.152C518.643 140.832 520.93 147.362 521.174 155.396C521.173 157.295 521.157 159.194 521.126 161.093C521.122 162.101 521.118 163.11 521.113 164.148C521.097 167.337 521.059 170.525 521.021 173.714C521.006 175.889 520.992 178.064 520.98 180.24C520.947 185.544 520.897 190.848 520.833 196.152C517.482 196.905 514.402 197.271 510.97 197.249C509.641 197.244 509.641 197.244 508.284 197.24C506.916 197.227 506.916 197.227 505.521 197.214C504.589 197.21 503.658 197.205 502.699 197.2C500.41 197.189 498.122 197.172 495.833 197.152C495.173 195.172 494.513 193.192 493.833 191.152C493.279 191.573 492.725 191.995 492.154 192.429C491.429 192.977 490.705 193.525 489.958 194.089C489.239 194.634 488.52 195.18 487.779 195.741C482.647 199.461 475.664 199.686 469.509 198.827C463.803 197.067 459.802 193.264 456.833 188.152C454.554 181.163 454.229 175.017 456.833 168.152C460.473 161.277 465.474 157.722 472.771 155.402C480.121 153.436 487.246 152.994 494.833 153.152C493.383 149.816 493.383 149.816 490.333 147.839C482.18 146.238 475.059 148.506 467.4 151.312C464.833 152.152 464.833 152.152 461.833 152.152C461.833 145.882 461.833 139.612 461.833 133.152C470.681 130.681 478.848 128.538 488.025 128.031ZM480.833 171.152C480.583 174.11 480.583 174.11 480.833 177.152C482.765 179.5 482.765 179.5 486.208 179.527C489.858 179.476 489.858 179.476 492.208 177.277C494.918 173.733 494.929 171.573 494.833 167.152C489.927 166.793 484.513 167.472 480.833 171.152Z" fill="#7C52E8"/>
<path d="M193.887 100.004C195.052 100.003 196.218 100.001 197.418 100C198.646 100.004 199.873 100.008 201.137 100.012C202.978 100.006 202.978 100.006 204.856 100C206.604 100.002 206.604 100.002 208.387 100.004C209.465 100.005 210.542 100.006 211.653 100.007C214.137 100.137 214.137 100.137 215.137 101.137C215.238 104.114 215.273 107.069 215.266 110.047C215.268 110.982 215.27 111.917 215.272 112.88C215.276 115.986 215.273 119.093 215.27 122.199C215.271 124.348 215.272 126.496 215.273 128.645C215.274 133.154 215.272 137.663 215.267 142.173C215.262 147.967 215.265 153.762 215.271 159.556C215.275 163.994 215.273 168.433 215.271 172.871C215.27 175.008 215.271 177.146 215.273 179.283C215.276 182.264 215.272 185.245 215.266 188.227C215.269 189.119 215.271 190.012 215.273 190.931C215.251 197.022 215.251 197.022 214.137 198.137C212.223 198.236 210.304 198.268 208.387 198.27C207.222 198.271 206.056 198.272 204.856 198.273C203.629 198.27 202.401 198.266 201.137 198.262C199.296 198.268 199.296 198.268 197.418 198.273C196.253 198.272 195.088 198.271 193.887 198.27C192.809 198.268 191.732 198.267 190.621 198.266C188.137 198.137 188.137 198.137 187.137 197.137C187.036 194.159 187.001 191.205 187.008 188.227C187.006 187.292 187.004 186.357 187.002 185.394C186.998 182.287 187.001 179.181 187.004 176.074C187.004 173.926 187.003 171.777 187.001 169.629C187 165.119 187.002 160.61 187.007 156.101C187.012 150.306 187.009 144.512 187.003 138.718C187 134.279 187.001 129.841 187.003 125.402C187.004 123.265 187.003 121.128 187.001 118.991C186.998 116.009 187.002 113.028 187.008 110.047C187.006 109.154 187.004 108.262 187.002 107.342C187.027 100.011 187.027 100.011 193.887 100.004Z" fill="#0B1220"/>
</svg>

